<svg width="134.000000" height="60.000000" viewBox="0 0 134 60" fill="none" xmlns="http://www.w3.org/2000/svg" xmlns:xlink="http://www.w3.org/1999/xlink">
	<desc>
			Created with Pixso.
	</desc>
	<defs/>
	<path id="~" d="M98.42 60C109.38 60 118.04 55.13 124.42 45.4C130.81 35.67 134 22.35 134 5.42L104.81 5.42C104.17 8.86 102.91 11.62 101 13.71C99.1 15.79 96.34 16.83 92.72 16.83C89.46 16.83 85.93 15.97 82.13 14.25C78.33 12.53 74.21 10.56 69.78 8.34C65.34 6.13 60.43 4.18 55.05 2.51C49.66 0.83 43.76 0 37.33 0C25.75 0 16.63 4.88 9.97 14.66C3.32 24.43 0 37.69 0 54.43L29.18 54.43C29.82 51.08 31.24 48.37 33.46 46.28C35.68 44.2 38.64 43.16 42.35 43.16C45.43 43.16 48.83 44 52.54 45.67C56.25 47.35 60.41 49.32 65.03 51.58C69.64 53.84 74.73 55.81 80.3 57.48C85.87 59.16 91.91 60 98.42 60Z" fill="#F94F4F" fill-opacity="1.000000" fill-rule="nonzero"/>
</svg>
