<svg width="134.000000" height="60.000000" viewBox="0 0 134 60" fill="none" xmlns="http://www.w3.org/2000/svg" xmlns:xlink="http://www.w3.org/1999/xlink">
	<desc>
			Created with Pixso.
	</desc>
	<defs/>
	<path id="~" d="M97.88 59.4C108.83 59.4 117.5 54.54 123.88 44.81C130.26 35.08 133.45 21.76 133.45 4.83L104.26 4.83C103.62 8.27 102.36 11.03 100.46 13.11C98.56 15.19 95.79 16.24 92.17 16.24C88.92 16.24 85.39 15.38 81.58 13.66C77.78 11.94 73.67 9.97 69.23 7.75C64.8 5.53 59.89 3.59 54.5 1.91C49.11 0.24 43.21 -0.6 36.78 -0.6C25.2 -0.6 16.08 4.29 9.43 14.06C2.77 23.84 -0.55 37.1 -0.55 53.84L28.64 53.84C29.27 50.49 30.7 47.77 32.91 45.69C35.13 43.61 38.09 42.57 41.81 42.57C44.88 42.57 48.28 43.41 51.99 45.08C55.7 46.76 59.86 48.72 64.48 50.99C69.09 53.25 74.19 55.22 79.75 56.89C85.32 58.57 91.36 59.4 97.88 59.4Z" fill="#F94F4F" fill-opacity="1.000000" fill-rule="nonzero"/>
</svg>
