<svg width="134.000000" height="60.000000" viewBox="0 0 134 60" fill="none" xmlns="http://www.w3.org/2000/svg" xmlns:xlink="http://www.w3.org/1999/xlink">
	<desc>
			Created with Pixso.
	</desc>
	<defs/>
	<path id="~" d="M98.42 0C109.38 0 118.04 4.86 124.42 14.59C130.81 24.32 134 37.64 134 54.57L104.81 54.57C104.17 51.13 102.91 48.37 101 46.28C99.1 44.2 96.34 43.16 92.72 43.16C89.46 43.16 85.93 44.02 82.13 45.74C78.33 47.46 74.21 49.43 69.78 51.65C65.34 53.86 60.43 55.81 55.05 57.48C49.66 59.16 43.76 60 37.33 60C25.75 60 16.63 55.11 9.97 45.33C3.32 35.56 0 22.3 0 5.56L29.18 5.56C29.82 8.91 31.24 11.62 33.46 13.71C35.68 15.79 38.64 16.83 42.35 16.83C45.43 16.83 48.83 15.99 52.54 14.32C56.25 12.64 60.41 10.67 65.03 8.41C69.64 6.15 74.73 4.18 80.3 2.51C85.87 0.83 91.91 0 98.42 0Z" fill="#FFFFFF" fill-opacity="1.000000" fill-rule="nonzero"/>
</svg>
