<svg width="161.000000" height="30.000000" viewBox="0 0 161 30" fill="none" xmlns="http://www.w3.org/2000/svg" xmlns:xlink="http://www.w3.org/1999/xlink">
	<desc>
			Created with Pixso.
	</desc>
	<defs/>
	<path id="creative" d="M49.9414 25.6515C49.3323 25.7115 48.649 25.7416 47.8918 25.7416Q45.011 25.7416 43.0109 24.6432C41.6775 23.911 40.6622 22.9055 39.9653 21.6268Q38.92 19.7089 38.92 17.2007Q38.92 14.6924 39.8666 12.7252Q40.2847 11.8563 40.8922 11.1506L40.8922 11.1506Q41.6602 10.2584 42.731 9.62683Q44.6488 8.49573 47.5626 8.49573L47.5627 8.49573Q48.5504 8.49573 49.5381 8.63501C50.1965 8.72791 50.8193 8.85913 51.4065 9.02844C51.9937 9.19788 52.5122 9.40283 52.9622 9.64319L52.5342 14.84Q51.5793 14.299 50.822 14.0449C50.3173 13.8755 49.8673 13.7607 49.4722 13.7006C49.0771 13.6405 48.7369 13.6105 48.4515 13.6105Q47.3684 13.6105 46.5975 14.1012Q46.3141 14.2816 46.0728 14.5284Q45.9253 14.6793 45.8021 14.8479Q45.1757 15.7052 45.1757 17.0203Q45.1757 18.1455 45.6643 18.9869Q45.6669 18.9913 45.6694 18.9957C45.9987 19.5586 46.4761 19.9984 47.1017 20.3154Q48.04 20.7908 49.3569 20.7908Q49.827 20.7908 50.2861 20.7198Q50.3898 20.7039 50.4928 20.6842Q51.0525 20.5776 51.5958 20.3563C51.958 20.2089 52.3092 20.0258 52.6494 19.8071L52.8962 25.0039C52.5012 25.1569 52.0623 25.2881 51.5793 25.3973C51.0964 25.5066 50.5504 25.5913 49.9414 25.6515ZM61.5553 16.3973L61.5553 25.3645L55.415 25.3645L55.415 8.95471L60.5347 8.67603L60.7981 11.4957L61.2919 11.4957C61.709 10.6652 62.1589 10.0339 62.6418 9.60229C63.1248 9.17053 63.6158 8.8728 64.1151 8.70886C64.6145 8.54492 65.1056 8.46289 65.5885 8.46289C65.797 8.46289 66.0604 8.48474 66.3787 8.52844C66.6969 8.57227 66.9933 8.65417 67.2676 8.77441L66.7408 14.676C66.2799 14.6652 65.8656 14.6542 65.4979 14.6432C65.1304 14.6323 64.7544 14.6268 64.3704 14.6268C64.063 14.6268 63.7694 14.6542 63.4896 14.7089C63.2097 14.7634 62.9519 14.8591 62.7159 14.9957C62.48 15.1323 62.2632 15.3154 62.0657 15.5449C61.868 15.7744 61.698 16.0586 61.5553 16.3973ZM84.0836 17.0695C84.063 17.3318 84.0347 17.5909 83.9987 17.8472L83.9601 18.1023L74.452 18.1023L74.4624 18.161C74.5363 18.5504 74.6594 18.8997 74.8319 19.2089C75.1338 19.7498 75.6029 20.1624 76.2394 20.4465C76.876 20.7307 77.7046 20.8728 78.7252 20.8728C79.1202 20.8728 79.606 20.8318 80.1821 20.7498C80.7583 20.6678 81.3536 20.5449 81.9683 20.381C82.5828 20.217 83.1479 20.0094 83.6638 19.7581L83.8613 24.8236C83.4333 25.0094 82.9285 25.1787 82.3468 25.3318C81.7651 25.4847 81.1067 25.6077 80.3713 25.7007C79.6361 25.7935 78.8295 25.84 77.9515 25.84C75.7346 25.84 73.932 25.4684 72.5437 24.7252Q71.0758 23.9395 70.1599 22.734Q69.7766 22.2295 69.49 21.6515C68.8425 20.3455 68.5188 18.84 68.5188 17.135Q68.5188 14.5941 69.4159 12.635C70.014 11.329 70.9167 10.3071 72.1239 9.56946C73.3312 8.83179 74.8566 8.46289 76.7003 8.46289C78.2698 8.46289 79.606 8.72791 80.7089 9.25806C81.8118 9.78809 82.6569 10.5968 83.244 11.6842C83.8312 12.7716 84.1248 14.1678 84.1248 15.8728C84.1248 16.3208 84.1111 16.7197 84.0836 17.0695ZM74.4225 15.3486L74.4268 15.3104C74.4774 14.8762 74.5685 14.4926 74.7002 14.1597C74.9142 13.6187 75.1996 13.2089 75.5563 12.9302Q75.8313 12.7152 76.1433 12.6108Q76.4382 12.5121 76.7662 12.5121C77.3699 12.5121 77.8636 12.7771 78.2478 13.3071C78.5867 13.7749 78.7761 14.3936 78.816 15.1633L78.8182 15.228L74.4225 15.3486ZM92.4298 25.4055C91.8317 25.6624 91.1486 25.7908 90.3802 25.7908C89.4146 25.7908 88.5969 25.5858 87.9275 25.176C87.2581 24.7662 86.7505 24.2061 86.4048 23.4957Q85.8862 22.4302 85.8862 21.1023C85.8862 20.1515 86.0563 19.3618 86.3965 18.7334C86.7367 18.105 87.173 17.5968 87.7052 17.2089C88.2375 16.8208 88.7999 16.5258 89.3926 16.3236C89.9852 16.1213 90.5339 15.9766 91.0388 15.8892L95.4342 15.1515C95.4362 15.1146 95.4371 15.0785 95.4371 15.0431C95.4371 14.6881 95.3374 14.3964 95.1378 14.1678C94.9183 13.9165 94.5836 13.7307 94.1337 13.6105C93.6837 13.4902 93.1295 13.4302 92.4709 13.4302C92.0979 13.4302 91.6891 13.4602 91.2445 13.5203C90.8 13.5804 90.3336 13.6678 89.8453 13.7826C89.3569 13.8973 88.8658 14.0421 88.3719 14.217C87.8781 14.3918 87.3843 14.5995 86.8904 14.84L86.627 9.74158C87.0439 9.61047 87.5214 9.46838 88.0592 9.31543C88.5969 9.16235 89.1896 9.02307 89.837 8.89734C90.4846 8.77161 91.176 8.66785 91.9113 8.58582C92.6466 8.50391 93.4148 8.46289 94.2159 8.46289C95.6317 8.46289 96.8444 8.66785 97.854 9.07764C98.8638 9.48755 99.6348 10.1296 100.167 11.0039Q100.965 12.3154 100.965 14.4137L100.965 25.3645L95.895 25.3645L95.4835 23.0695L95.072 23.0695C94.7866 23.5503 94.4244 23.9957 93.9855 24.4055C93.5465 24.8154 93.028 25.1487 92.4298 25.4055ZM93.0966 21.135C92.7454 21.135 92.4216 21.0258 92.1252 20.8071C91.829 20.5886 91.6808 20.2334 91.6808 19.7416C91.6808 19.4137 91.7467 19.1378 91.8783 18.9137C92.01 18.6897 92.1884 18.5039 92.4133 18.3563C92.6383 18.2089 92.8881 18.1023 93.1624 18.0367C93.6233 17.9165 93.9883 17.8126 94.2571 17.7252C94.526 17.6378 94.7345 17.5531 94.8827 17.4711Q95.1049 17.3481 95.2695 17.2006L95.2695 19.6105C95.0939 19.9165 94.8882 20.1842 94.6522 20.4137C94.4163 20.6432 94.1638 20.8208 93.8949 20.9465C93.6261 21.0723 93.36 21.135 93.0966 21.135ZM113.007 25.7581C112.453 25.8126 111.913 25.84 111.386 25.84C110.102 25.84 108.996 25.6624 108.069 25.3071C107.141 24.952 106.433 24.3618 105.945 23.5367L105.877 23.4169C105.434 22.6055 105.213 21.5389 105.213 20.217L105.213 13.4957L102.809 13.4957L102.809 8.95471L105.213 8.95471L105.213 3.62683L111.271 2.59412L111.271 8.95471L115.699 8.95471L115.699 13.4957L111.271 13.4957L111.271 18.1678C111.271 19.0531 111.419 19.7334 111.715 20.2089C112.011 20.6842 112.516 20.9219 113.23 20.9219C113.548 20.9219 113.896 20.8618 114.275 20.7416C114.654 20.6213 115.04 20.4355 115.436 20.1842L115.748 25.0531C115.43 25.2279 115.032 25.3755 114.555 25.4957C114.077 25.616 113.562 25.7034 113.007 25.7581ZM123.848 6.38098Q122.893 7.11865 121.214 7.11865C120.127 7.11865 119.263 6.8728 118.621 6.38098C117.979 5.88916 117.658 5.07495 117.658 3.93835C117.658 2.95471 117.979 2.19238 118.621 1.65149C119.263 1.11047 120.138 0.839966 121.247 0.839966Q122.862 0.839966 123.801 1.63672Q123.829 1.66016 123.856 1.6842Q124.182 1.97485 124.395 2.3324Q124.802 3.01379 124.802 3.93835C124.802 5.07495 124.484 5.88916 123.848 6.38098ZM124.308 25.3645L118.168 25.3645L118.168 8.95471L124.308 8.79077L124.308 25.3645ZM139.585 22.2744C139.234 23.2963 138.877 24.3263 138.515 25.3645L131.996 25.3645C131.645 24.3373 131.288 23.299 130.926 22.2498C130.564 21.2007 130.202 20.1678 129.84 19.1515L128.836 16.2498C128.419 15.0367 127.999 13.8208 127.576 12.6023C127.154 11.3837 126.728 10.1678 126.3 8.95471L132.935 8.77441C133.154 9.79077 133.371 10.8126 133.585 11.84Q133.906 13.381 134.235 14.9219L135.058 18.7908L135.536 18.7908L136.359 14.9055C136.589 13.8455 136.811 12.8181 137.025 11.8236L137.643 8.95471L144.178 8.95471C143.761 10.1678 143.341 11.3865 142.919 12.6105C142.496 13.8345 142.071 15.0586 141.643 16.2826L140.639 19.2007C140.288 20.2279 139.937 21.2526 139.585 22.2744ZM160.879 17.0695C160.858 17.3318 160.83 17.5909 160.794 17.8472L160.755 18.1023L151.247 18.1023L151.258 18.161C151.332 18.5504 151.455 18.8997 151.627 19.2089C151.929 19.7498 152.398 20.1624 153.035 20.4465C153.671 20.7307 154.5 20.8728 155.521 20.8728C155.916 20.8728 156.401 20.8318 156.977 20.7498C157.554 20.6678 158.149 20.5449 158.764 20.381C159.378 20.217 159.943 20.0094 160.459 19.7581L160.657 24.8236C160.229 25.0094 159.724 25.1787 159.142 25.3318C158.561 25.4847 157.902 25.6077 157.167 25.7007C156.431 25.7935 155.625 25.84 154.747 25.84C152.53 25.84 150.727 25.4684 149.339 24.7252C147.951 23.9821 146.933 22.9574 146.285 21.6515Q145.314 19.6924 145.314 17.135C145.314 15.441 145.613 13.941 146.211 12.635C146.809 11.329 147.712 10.3071 148.919 9.56946Q150.73 8.46289 153.496 8.46289Q155.85 8.46289 157.504 9.25806C158.607 9.78809 159.452 10.5968 160.039 11.6842Q160.92 13.3154 160.92 15.8728C160.92 16.3208 160.906 16.7197 160.879 17.0695ZM151.218 15.3486L151.222 15.3104C151.273 14.8762 151.364 14.4926 151.495 14.1597C151.71 13.6187 151.995 13.2089 152.352 12.9302C152.708 12.6515 153.112 12.5121 153.562 12.5121C154.165 12.5121 154.659 12.7771 155.043 13.3071C155.382 13.7749 155.571 14.3936 155.611 15.1633L155.614 15.228L151.218 15.3486Z" clip-rule="evenodd" fill="#000000" fill-opacity="1.000000" fill-rule="evenodd"/>
	<mask id="mask_0_515" fill="white">
		<path id="Combined Shape" d="M13 4C5.82031 4 0 9.82031 0 17C0 24.1797 5.82031 30 13 30C18.719 30 23.5754 26.307 25.3148 21.1757Q24.9794 21.4227 24.6094 21.5958Q23.7446 22 22.691 22C21.7184 22 20.8167 21.8744 19.9858 21.6233C19.155 21.3722 18.3951 21.0769 17.7062 20.7375C17.0172 20.3982 16.3958 20.1029 15.8419 19.8518C15.2881 19.6007 14.7815 19.4751 14.3221 19.4751C13.7683 19.4751 13.3259 19.6312 12.9949 19.9435C12.6639 20.2556 12.4512 20.6628 12.3567 21.1652L8 21.1652Q8 17.3982 9.48938 15.1991Q10.2743 14.0402 11.3658 13.4921Q12.3456 13 13.5724 13Q15.0111 13 16.2168 13.3767C17.0206 13.6278 17.7534 13.9197 18.4154 14.2523C19.0774 14.5848 19.692 14.8801 20.2594 15.1381C20.8268 15.3959 21.3536 15.5249 21.84 15.5249C22.3802 15.5249 22.7924 15.3688 23.0759 15.0565C23.3596 14.7444 23.5488 14.3303 23.6433 13.8145L25.6068 13.8145C24.1863 8.1748 19.0807 4 13 4Z" clip-rule="evenodd" fill="" fill-opacity="1.000000" fill-rule="evenodd"/>
	</mask>
	<path id="Combined Shape" d="M13 4C5.82031 4 0 9.82031 0 17C0 24.1797 5.82031 30 13 30C18.719 30 23.5754 26.307 25.3148 21.1757Q24.9794 21.4227 24.6094 21.5958Q23.7446 22 22.691 22C21.7184 22 20.8167 21.8744 19.9858 21.6233C19.155 21.3722 18.3951 21.0769 17.7062 20.7375C17.0172 20.3982 16.3958 20.1029 15.8419 19.8518C15.2881 19.6007 14.7815 19.4751 14.3221 19.4751C13.7683 19.4751 13.3259 19.6312 12.9949 19.9435C12.6639 20.2556 12.4512 20.6628 12.3567 21.1652L8 21.1652Q8 17.3982 9.48938 15.1991Q10.2743 14.0402 11.3658 13.4921Q12.3456 13 13.5724 13Q15.0111 13 16.2168 13.3767C17.0206 13.6278 17.7534 13.9197 18.4154 14.2523C19.0774 14.5848 19.692 14.8801 20.2594 15.1381C20.8268 15.3959 21.3536 15.5249 21.84 15.5249C22.3802 15.5249 22.7924 15.3688 23.0759 15.0565C23.3596 14.7444 23.5488 14.3303 23.6433 13.8145L25.6068 13.8145C24.1863 8.1748 19.0807 4 13 4Z" clip-rule="evenodd" fill="#F94F4F" fill-opacity="1.000000" fill-rule="evenodd" mask="url(#mask_0_515)"/>
	<path id="Combined Shape" d="" fill="#979797" fill-opacity="0.000000" fill-rule="nonzero"/>
</svg>
